# xmcd
#
# Track frame offsets:
#	150
#	18688
#	36147
#	50912
#	67289
#	92095
#	110425
#	149789
#	192510
#	208516
#	223436
#
# Disc length: 3196 seconds
#
# Revision: 0
# Processed by: cddbd v1.5.2PL0 Copyright (c) Steve Scherf et al.
# Submitted via: dBpowerAMP V4.0
#
DISCID=be0c7a0b
DTITLE=RICK DERRINGER - Blues Deluxe
DYEAR=2002
DGENRE=Blues
TTITLE0=Let The Good Times Roll
TTITLE1=Running Blues
TTITLE2=Blues Power
TTITLE3=Key To The Highway
TTITLE4=Blues Deluxe
TTITLE5=Hideaway
TTITLE6=Killing Floor
TTITLE7=Funky Music
TTITLE8=Something Inside Of Me
TTITLE9=Still Welth and Well
TTITLE10=Bright Lights Big City
EXTD=
EXTT0=
EXTT1=
EXTT2=
EXTT3=
EXTT4=
EXTT5=
EXTT6=
EXTT7=
EXTT8=
EXTT9=
EXTT10=
PLAYORDER=
